<?xml version="1.0" encoding="UTF-8" standalone="no"?>
<!-- Created with Inkscape (http://www.inkscape.org/) -->

<svg
   xmlns:dc="http://purl.org/dc/elements/1.1/"
   xmlns:cc="http://creativecommons.org/ns#"
   xmlns:rdf="http://www.w3.org/1999/02/22-rdf-syntax-ns#"
   xmlns:svg="http://www.w3.org/2000/svg"
   xmlns="http://www.w3.org/2000/svg"
   xmlns:sodipodi="http://sodipodi.sourceforge.net/DTD/sodipodi-0.dtd"
   xmlns:inkscape="http://www.inkscape.org/namespaces/inkscape"
   width="184.22705mm"
   height="31.171223mm"
   viewBox="0 0 184.22705 31.171223"
   version="1.1"
   id="svg8"
   inkscape:version="0.92.3 (2405546, 2018-03-11)"
   sodipodi:docname="dbx1000.svg">
  <defs
     id="defs2" />
  <sodipodi:namedview
     id="base"
     pagecolor="#ffffff"
     bordercolor="#666666"
     borderopacity="1.0"
     inkscape:pageopacity="0.0"
     inkscape:pageshadow="2"
     inkscape:zoom="0.98994949"
     inkscape:cx="379.59048"
     inkscape:cy="-47.197891"
     inkscape:document-units="mm"
     inkscape:current-layer="text4753"
     showgrid="false"
     inkscape:window-width="2478"
     inkscape:window-height="1409"
     inkscape:window-x="2560"
     inkscape:window-y="0"
     inkscape:window-maximized="1"
     fit-margin-top="0"
     fit-margin-left="0"
     fit-margin-right="0"
     fit-margin-bottom="0" />
  <metadata
     id="metadata5">
    <rdf:RDF>
      <cc:Work
         rdf:about="">
        <dc:format>image/svg+xml</dc:format>
        <dc:type
           rdf:resource="http://purl.org/dc/dcmitype/StillImage" />
        <dc:title></dc:title>
      </cc:Work>
    </rdf:RDF>
  </metadata>
  <g
     inkscape:label="Layer 1"
     inkscape:groupmode="layer"
     id="layer1"
     transform="translate(-13.462746,-70.930477)">
    <g
       aria-label="DB×"
       style="font-style:normal;font-weight:normal;font-size:10.58333302px;line-height:125%;font-family:'Times New Roman';-inkscape-font-specification:'Times New Roman';letter-spacing:0px;word-spacing:0px;fill:#000000;fill-opacity:1;stroke:none;stroke-width:0.26458332px;stroke-linecap:butt;stroke-linejoin:miter;stroke-opacity:1"
       id="text4753">
      <path
         d="m 13.462746,99.405083 v -0.587389 h 2.861152 V 74.109468 h -2.861152 v -0.587389 h 12.221476 q 6.612861,0 10.17509,3.372749 3.562229,3.372748 3.562229,9.587701 0,6.196004 -3.581177,9.568753 -3.581177,3.353801 -10.156142,3.353801 z m 8.602403,-0.587389 h 3.069581 q 4.547526,0 6.309692,-2.59588 1.762167,-2.595879 1.762167,-9.739285 0,-7.181302 -1.762167,-9.777181 -1.762166,-2.59588 -6.309692,-2.59588 h -3.069581 z"
         style="font-style:normal;font-variant:normal;font-weight:normal;font-stretch:normal;font-size:38.80555725px;font-family:'BauerBodni BT';-inkscape-font-specification:'BauerBodni BT';fill:#464159;fill-opacity:1;stroke-width:0.26458332px"
         id="path4765" />
      <path
         d="m 49.937695,85.440388 h 1.34531 q 2.78536,0 3.998034,-1.307414 1.212673,-1.326362 1.212673,-4.358046 0,-2.8801 -1.288465,-4.263306 -1.269518,-1.402154 -3.922242,-1.402154 h -1.34531 z m 0,13.377306 h 2.008491 q 2.59588,0 4.03593,-1.610582 1.44005,-1.610583 1.44005,-4.509631 0,-3.581176 -1.421102,-5.134915 -1.421102,-1.553738 -4.718059,-1.553738 h -1.34531 z m -8.810832,0.587389 v -0.587389 h 3.050633 V 74.109468 h -3.050633 v -0.587389 h 10.743531 q 4.945435,0 7.503418,1.553738 2.576932,1.553738 2.576932,4.547527 0,2.273763 -1.743218,3.751709 -1.743219,1.458998 -5.040175,1.989542 v 0.189481 q 4.054877,0.397908 6.158108,2.179023 2.103231,1.762166 2.103231,4.755954 0,3.183269 -2.671672,5.059123 -2.671671,1.856907 -7.29499,1.856907 z"
         style="font-style:normal;font-variant:normal;font-weight:normal;font-stretch:normal;font-size:38.80555725px;font-family:'BauerBodni BT';-inkscape-font-specification:'BauerBodni BT';fill:#464159;fill-opacity:1;stroke-width:0.26458332px"
         id="path4767" />
      <path
         d="m 80.633498,85.591972 8.73504,-8.697144 2.216919,2.216919 -8.697144,8.73504 8.697144,8.678196 -2.216919,2.254815 -8.73504,-8.73504 -8.697144,8.73504 -2.197971,-2.254815 8.678196,-8.678196 -8.678196,-8.73504 2.197971,-2.216919 z"
         style="font-style:normal;font-variant:normal;font-weight:normal;font-stretch:normal;font-size:38.80555725px;font-family:'BauerBodni BT';-inkscape-font-specification:'BauerBodni BT';fill:#464159;fill-opacity:1;stroke-width:0.26458332px"
         id="path4769" />
    </g>
    <g
       aria-label="1000"
       style="font-style:normal;font-weight:normal;font-size:10.58333302px;line-height:125%;font-family:'Times New Roman';-inkscape-font-specification:'Times New Roman';letter-spacing:0px;word-spacing:0px;fill:#000000;fill-opacity:1;stroke:none;stroke-width:0.26458332px;stroke-linecap:butt;stroke-linejoin:miter;stroke-opacity:1"
       id="text4758">
      <path
         d="m 105.62721,72.666805 q 0,0.847493 -0.37207,1.715657 -0.37207,0.847494 -0.74414,1.632976 0,1.426269 -0.0207,3.245279 0,1.79834 0,3.782715 0,1.984375 -0.0207,4.051432 0,2.067058 -0.0207,4.030762 0,1.943034 0,3.658691 0,1.715658 -0.0207,3.017904 0,1.302246 0,2.067057 0,0.764812 0,0.806152 0,0.33073 -0.22738,0.55811 -0.22738,0.22737 -0.55811,0.22737 -0.33072,0 -0.5581,-0.22737 -0.20671,-0.22738 -0.20671,-0.55811 0,-0.0413 0,-1.116211 0,-1.09554 0,-2.873209 0.0207,-1.777669 0.0207,-4.051432 0,-2.294434 0,-4.733561 0.0207,-2.459798 0.0207,-4.878255 0.0207,-2.439128 0.0207,-4.506185 -1.07487,1.46761 -2.29444,2.666504 -1.198891,1.178222 -2.253091,2.046386 -1.033528,0.847494 -1.756998,1.343587 -0.7028,0.475424 -0.785482,0.537435 -0.227376,0.124024 -0.413412,0.124024 -0.289388,0 -0.537434,-0.206706 -0.248047,-0.227376 -0.248047,-0.578776 0,-0.413411 0.37207,-0.661458 0.02067,-0.02067 0.434082,-0.289388 0.413411,-0.289388 1.07487,-0.785482 0.661458,-0.516764 1.508952,-1.240234 0.847493,-0.744141 1.715657,-1.632976 0.888833,-0.909505 1.715653,-1.963704 0.82683,-1.07487 1.46762,-2.253092 0,-0.330729 0,-0.72347 0,-0.413412 0,-0.806153 0,-0.413411 0,-0.764811 0,-0.37207 0,-0.620117 0.0413,-0.930176 0.37207,-1.343587 0.3514,-0.434082 0.95084,-0.434082 0.59945,0 0.97152,0.516764 0.39274,0.516764 0.39274,1.219564 z"
         style="font-style:normal;font-variant:normal;font-weight:normal;font-stretch:normal;font-size:42.33333206px;font-family:Sacramento;-inkscape-font-specification:Sacramento;letter-spacing:-2.11666656px;fill:#6c7b95;fill-opacity:1;stroke-width:0.26458332px"
         id="path4756" />
      <path
         d="m 136.76949,86.516088 q 0,2.14974 -0.53743,4.154785 -0.53744,1.984375 -1.52962,3.720703 -0.97152,1.715658 -2.35645,3.141927 -1.36426,1.42627 -3.03857,2.439128 -1.65365,1.012859 -3.57601,1.570959 -1.92237,0.55811 -3.98942,0.55811 -2.06706,0 -3.98942,-0.55811 -1.92237,-0.5581 -3.59668,-1.570959 -1.65365,-1.012858 -3.03858,-2.439128 -1.36425,-1.426269 -2.35644,-3.141927 -0.97152,-1.736328 -1.50895,-3.720703 -0.53744,-2.005045 -0.53744,-4.154785 0,-2.149739 0.53744,-4.134114 0.53743,-2.005046 1.50895,-3.720703 0.99219,-1.736328 2.35644,-3.162598 1.38493,-1.426269 3.03858,-2.439127 1.67431,-1.012858 3.59668,-1.570964 1.92236,-0.558105 3.98942,-0.558105 2.06705,0 3.98942,0.558105 1.92236,0.558106 3.57601,1.570964 1.67431,1.012858 3.03857,2.439127 1.38493,1.42627 2.35645,3.162598 0.99218,1.715657 1.52962,3.720703 0.53743,1.984375 0.53743,4.134114 z m -1.55029,0 q 0,-1.922363 -0.49609,-3.720703 -0.47543,-1.79834 -1.34359,-3.348632 -0.86816,-1.570964 -2.1084,-2.852539 -1.24023,-1.281576 -2.72851,-2.191081 -1.48829,-0.909505 -3.22461,-1.405599 -1.71566,-0.516764 -3.57601,-0.516764 -1.86035,0 -3.57601,0.516764 -1.71566,0.496094 -3.22461,1.405599 -1.48828,0.909505 -2.72852,2.191081 -1.21956,1.281575 -2.10839,2.852539 -0.86817,1.550292 -1.36426,3.348632 -0.47543,1.79834 -0.47543,3.720703 0,1.922363 0.47543,3.720703 0.49609,1.79834 1.36426,3.369304 0.88883,1.550292 2.10839,2.831868 1.24024,1.281575 2.72852,2.191081 1.50895,0.909505 3.22461,1.426266 1.71566,0.4961 3.57601,0.4961 1.86035,0 3.57601,-0.4961 1.73632,-0.516761 3.22461,-1.426266 1.48828,-0.909506 2.72851,-2.191081 1.24024,-1.281576 2.1084,-2.831868 0.86816,-1.570964 1.34359,-3.348633 0.49609,-1.79834 0.49609,-3.741374 z"
         style="font-style:normal;font-variant:normal;font-weight:normal;font-stretch:normal;font-size:42.33333206px;font-family:Sacramento;-inkscape-font-specification:Sacramento;letter-spacing:-2.11666656px;fill:#6c7b95;fill-opacity:1;stroke-width:0.26458332px"
         id="path4758" />
      <path
         d="m 167.22965,86.516088 q 0,2.14974 -0.53744,4.154785 -0.53743,1.984375 -1.52962,3.720703 -0.97152,1.715658 -2.35644,3.141927 -1.36426,1.42627 -3.03858,2.439128 -1.65364,1.012859 -3.57601,1.570959 -1.92236,0.55811 -3.98942,0.55811 -2.06705,0 -3.98942,-0.55811 -1.92236,-0.5581 -3.59668,-1.570959 -1.65364,-1.012858 -3.03857,-2.439128 -1.36426,-1.426269 -2.35645,-3.141927 -0.97151,-1.736328 -1.50895,-3.720703 -0.53743,-2.005045 -0.53743,-4.154785 0,-2.149739 0.53743,-4.134114 0.53744,-2.005046 1.50895,-3.720703 0.99219,-1.736328 2.35645,-3.162598 1.38493,-1.426269 3.03857,-2.439127 1.67432,-1.012858 3.59668,-1.570964 1.92237,-0.558105 3.98942,-0.558105 2.06706,0 3.98942,0.558105 1.92237,0.558106 3.57601,1.570964 1.67432,1.012858 3.03858,2.439127 1.38492,1.42627 2.35644,3.162598 0.99219,1.715657 1.52962,3.720703 0.53744,1.984375 0.53744,4.134114 z m -1.55029,0 q 0,-1.922363 -0.4961,-3.720703 -0.47542,-1.79834 -1.34358,-3.348632 -0.86817,-1.570964 -2.1084,-2.852539 -1.24024,-1.281576 -2.72852,-2.191081 -1.48828,-0.909505 -3.22461,-1.405599 -1.71566,-0.516764 -3.57601,-0.516764 -1.86035,0 -3.57601,0.516764 -1.71565,0.496094 -3.22461,1.405599 -1.48828,0.909505 -2.72851,2.191081 -1.21956,1.281575 -2.1084,2.852539 -0.86816,1.550292 -1.36426,3.348632 -0.47542,1.79834 -0.47542,3.720703 0,1.922363 0.47542,3.720703 0.4961,1.79834 1.36426,3.369304 0.88884,1.550292 2.1084,2.831868 1.24023,1.281575 2.72851,2.191081 1.50896,0.909505 3.22461,1.426266 1.71566,0.4961 3.57601,0.4961 1.86035,0 3.57601,-0.4961 1.73633,-0.516761 3.22461,-1.426266 1.48828,-0.909506 2.72852,-2.191081 1.24023,-1.281576 2.1084,-2.831868 0.86816,-1.570964 1.34358,-3.348633 0.4961,-1.79834 0.4961,-3.741374 z"
         style="font-style:normal;font-variant:normal;font-weight:normal;font-stretch:normal;font-size:42.33333206px;font-family:Sacramento;-inkscape-font-specification:Sacramento;letter-spacing:-2.11666656px;fill:#6c7b95;fill-opacity:1;stroke-width:0.26458332px"
         id="path4760" />
      <path
         d="m 197.6898,86.516088 q 0,2.14974 -0.53743,4.154785 -0.53744,1.984375 -1.52963,3.720703 -0.97151,1.715658 -2.35644,3.141927 -1.36426,1.42627 -3.03858,2.439128 -1.65364,1.012859 -3.57601,1.570959 -1.92236,0.55811 -3.98942,0.55811 -2.06705,0 -3.98942,-0.55811 -1.92236,-0.5581 -3.59668,-1.570959 -1.65364,-1.012858 -3.03857,-2.439128 -1.36426,-1.426269 -2.35644,-3.141927 -0.97152,-1.736328 -1.50896,-3.720703 -0.53743,-2.005045 -0.53743,-4.154785 0,-2.149739 0.53743,-4.134114 0.53744,-2.005046 1.50896,-3.720703 0.99218,-1.736328 2.35644,-3.162598 1.38493,-1.426269 3.03857,-2.439127 1.67432,-1.012858 3.59668,-1.570964 1.92237,-0.558105 3.98942,-0.558105 2.06706,0 3.98942,0.558105 1.92237,0.558106 3.57601,1.570964 1.67432,1.012858 3.03858,2.439127 1.38493,1.42627 2.35644,3.162598 0.99219,1.715657 1.52963,3.720703 0.53743,1.984375 0.53743,4.134114 z m -1.55029,0 q 0,-1.922363 -0.4961,-3.720703 -0.47542,-1.79834 -1.34358,-3.348632 -0.86817,-1.570964 -2.1084,-2.852539 -1.24024,-1.281576 -2.72852,-2.191081 -1.48828,-0.909505 -3.22461,-1.405599 -1.71565,-0.516764 -3.57601,-0.516764 -1.86035,0 -3.576,0.516764 -1.71566,0.496094 -3.22461,1.405599 -1.48828,0.909505 -2.72852,2.191081 -1.21956,1.281575 -2.1084,2.852539 -0.86816,1.550292 -1.36426,3.348632 -0.47542,1.79834 -0.47542,3.720703 0,1.922363 0.47542,3.720703 0.4961,1.79834 1.36426,3.369304 0.88884,1.550292 2.1084,2.831868 1.24024,1.281575 2.72852,2.191081 1.50895,0.909505 3.22461,1.426266 1.71565,0.4961 3.576,0.4961 1.86036,0 3.57601,-0.4961 1.73633,-0.516761 3.22461,-1.426266 1.48828,-0.909506 2.72852,-2.191081 1.24023,-1.281576 2.1084,-2.831868 0.86816,-1.570964 1.34358,-3.348633 0.4961,-1.79834 0.4961,-3.741374 z"
         style="font-style:normal;font-variant:normal;font-weight:normal;font-stretch:normal;font-size:42.33333206px;font-family:Sacramento;-inkscape-font-specification:Sacramento;letter-spacing:-2.11666656px;fill:#6c7b95;fill-opacity:1;stroke-width:0.26458332px"
         id="path4762" />
    </g>
  </g>
</svg>
